<svg width="61" height="61" viewBox="0 0 61 61" fill="none" xmlns="http://www.w3.org/2000/svg">
<path fill-rule="evenodd" clip-rule="evenodd" d="M48 30.5C48 40.165 40.165 48 30.5 48C20.835 48 13 40.165 13 30.5C13 20.835 20.835 13 30.5 13C35.1413 13 39.5925 14.8438 42.8742 18.1256C46.1562 21.4075 48 25.8587 48 30.5Z" stroke="#877EFF" stroke-width="2" stroke-linecap="round" stroke-linejoin="round"/>
<path d="M22.875 35.5833C23.3358 36.7837 24.091 37.8492 25.071 38.6816C28.1878 41.2977 32.7235 41.3308 35.8782 38.7604C36.8717 37.9427 37.6444 36.8887 38.125 35.6951" stroke="#877EFF" stroke-width="2" stroke-linecap="round" stroke-linejoin="round"/>
<path d="M22.875 27.9584V25.4167" stroke="#877EFF" stroke-width="2" stroke-linecap="round"/>
<path d="M38.125 27.9584V25.4167" stroke="#877EFF" stroke-width="2" stroke-linecap="round"/>
</svg>
